<svg xmlns="http://www.w3.org/2000/svg" width="24.001" height="24" viewBox="0 0 24.001 24">
  <path id="airplane-journey" d="M17.261,10.292a2.5,2.5,0,0,0,3.48,0l1.8-1.756a5,5,0,1,0-7.063.008l1.788,1.748ZM16.88,2.879a3,3,0,0,1,4.251,4.234L19.343,8.861a.484.484,0,0,1-.683,0l-1.78-1.74a3.005,3.005,0,0,1,0-4.243ZM24,17a4,4,0,0,1-4,4H13a1,1,0,1,1,0-2h7a2,2,0,1,0,0-4H9A4,4,0,1,1,9,7h3a1,1,0,1,1,0,2H9a2,2,0,1,0,0,4H20A4,4,0,0,1,24,17ZM10,20a1,1,0,0,1-1,1H7.5L5.59,23.422A1.111,1.111,0,0,1,4.615,24H4.3a.543.543,0,0,1-.506-.74L4.668,21H2.348A1.5,1.5,0,0,1,1.2,20.468l-1.1-1.3a.78.78,0,0,1,1.228-.939L2.443,19H4.684l-.891-2.258A.543.543,0,0,1,4.3,16h.3a1.109,1.109,0,0,1,.975.579L7.5,19H9a1,1,0,0,1,1,1ZM20,4.787a1,1,0,1,1-1-1A1,1,0,0,1,20,4.787Z" transform="translate(-0.001 -0.001)" fill="#015287"/>
</svg>
