<svg xmlns="http://www.w3.org/2000/svg" width="61.988" height="62" viewBox="0 0 61.988 62">
  <path id="benefit-porcent" d="M29.708,15.5a3.875,3.875,0,1,1-3.875,3.875A3.876,3.876,0,0,1,29.708,15.5Zm-15.5-7.75a3.875,3.875,0,1,0-3.875-3.875A3.876,3.876,0,0,0,14.208,7.75ZM60.026,33.622,42.446,53.351A25.855,25.855,0,0,1,23.159,62H10.333A10.344,10.344,0,0,1,0,51.666V38.75A10.344,10.344,0,0,1,10.333,28.416H33.216a8.12,8.12,0,0,1,6.947,3.921l8.308-9.129a7.776,7.776,0,0,1,10.989-.514,7.8,7.8,0,0,1,.566,10.925ZM55.98,26.515a2.679,2.679,0,0,0-1.881-.677,2.593,2.593,0,0,0-1.808.85L40.858,39.253a8.163,8.163,0,0,1-6.494,5.319l-13.332,1.9a2.582,2.582,0,0,1-.731-5.112l13.332-1.9a2.951,2.951,0,0,0-.416-5.872H10.333a5.172,5.172,0,0,0-5.167,5.167V51.671a5.172,5.172,0,0,0,5.167,5.167H23.159a20.685,20.685,0,0,0,15.43-6.918L56.169,30.189a2.625,2.625,0,0,0-.189-3.671Zm-41.23-3.673a2.583,2.583,0,0,0,3.57-.775L29.943,3.981A2.584,2.584,0,0,0,25.6,1.188L13.971,19.272a2.585,2.585,0,0,0,.778,3.57Z" transform="translate(0 0)" fill="#015287"/>
</svg>
