<svg xmlns="http://www.w3.org/2000/svg" width="62" height="62" viewBox="0 0 62 62">
  <path id="catalog" d="M49.083,15.5V7.75A7.759,7.759,0,0,0,41.333,0H12.917A12.931,12.931,0,0,0,0,12.917V33.583A12.931,12.931,0,0,0,12.917,46.5v2.583A12.931,12.931,0,0,0,25.833,62h23.25A12.931,12.931,0,0,0,62,49.083V28.417A12.931,12.931,0,0,0,49.083,15.5Zm-22.64,0L43.751,6.846a2.563,2.563,0,0,1,.163.9V15.5H26.44ZM5.167,33.583V12.917a7.759,7.759,0,0,1,7.75-7.75h22.64l-15.5,7.75a12.85,12.85,0,0,0-7.14,11.553V41.333A7.759,7.759,0,0,1,5.167,33.583Zm51.667,15.5a7.759,7.759,0,0,1-7.75,7.75H25.833a7.759,7.759,0,0,1-7.75-7.75V24.469a7.753,7.753,0,0,1,.989-3.8H49.083a7.759,7.759,0,0,1,7.75,7.75ZM51.667,31a2.581,2.581,0,0,1-2.583,2.583h-7.75a2.583,2.583,0,0,1,0-5.167h7.75A2.581,2.581,0,0,1,51.667,31ZM33.583,28.417v5.167A2.584,2.584,0,0,1,31,36.167H25.833a2.584,2.584,0,0,1-2.583-2.583V28.417a2.584,2.584,0,0,1,2.583-2.583H31A2.584,2.584,0,0,1,33.583,28.417ZM51.667,46.5a2.581,2.581,0,0,1-2.583,2.583h-7.75a2.583,2.583,0,0,1,0-5.167h7.75A2.581,2.581,0,0,1,51.667,46.5ZM33.583,43.917v5.167A2.584,2.584,0,0,1,31,51.667H25.833a2.584,2.584,0,0,1-2.583-2.583V43.917a2.584,2.584,0,0,1,2.583-2.583H31A2.584,2.584,0,0,1,33.583,43.917Z" fill="#015287"/>
</svg>
