<svg xmlns="http://www.w3.org/2000/svg" width="67.643" height="61.999" viewBox="0 0 67.643 61.999">
  <path id="folder-open" d="M66.21,29.229a7.141,7.141,0,0,0-5.777-2.9H59.184v-5.6A14.107,14.107,0,0,0,45.092,6.635H30.843a2.863,2.863,0,0,1-1.26-.3L20.692,1.892A8.5,8.5,0,0,0,16.91,1H11.273A11.28,11.28,0,0,0,0,12.271V48.909A14.107,14.107,0,0,0,14.091,63H49.483A14.041,14.041,0,0,0,63.016,52.835L67.334,35.6a7.144,7.144,0,0,0-1.122-6.369ZM5.637,48.909V12.271a5.642,5.642,0,0,1,5.637-5.637H16.91a2.863,2.863,0,0,1,1.26.3l8.892,4.447a8.5,8.5,0,0,0,3.782.891H45.092a8.465,8.465,0,0,1,8.455,8.455v5.6H24.279A11.314,11.314,0,0,0,13.6,33.989L7.429,54.106a8.418,8.418,0,0,1-1.792-5.2ZM61.9,34.1,57.583,51.338a8.4,8.4,0,0,1-8.1,6.025H14.091a8.347,8.347,0,0,1-1.711-.175l6.578-21.444a5.64,5.64,0,0,1,5.324-3.782H60.435a1.532,1.532,0,0,1,1.254.631A1.641,1.641,0,0,1,61.9,34.1Z" transform="translate(0 -1.001)" fill="#015287"/>
</svg>
