<svg xmlns="http://www.w3.org/2000/svg" width="61.999" height="62" viewBox="0 0 61.999 62">
  <path id="review_1_" data-name="review (1)" d="M20.667,31a15.5,15.5,0,1,0-15.5-15.5A15.516,15.516,0,0,0,20.667,31Zm0-25.833A10.333,10.333,0,1,1,10.333,15.5,10.344,10.344,0,0,1,20.667,5.167ZM25.833,38.75a2.584,2.584,0,0,1-2.583,2.583A18.1,18.1,0,0,0,5.167,59.417a2.583,2.583,0,1,1-5.167,0,23.278,23.278,0,0,1,23.25-23.25A2.584,2.584,0,0,1,25.833,38.75ZM61.08,45.859l-6.112,4.978,2.529,7.7a2.583,2.583,0,0,1-3.862,2.976L46.521,56.88l-7,4.681a2.584,2.584,0,0,1-3.9-2.924l2.431-7.791-6.141-5A2.582,2.582,0,0,1,33.583,41.3h7.753l2.743-7.7a2.583,2.583,0,0,1,4.841,0l2.744,7.7h7.753a2.584,2.584,0,0,1,1.664,4.56Z" fill="#015287"/>
</svg>
