<svg xmlns="http://www.w3.org/2000/svg" width="62.081" height="62" viewBox="0 0 62.081 62">
  <path id="shopping-basket" d="M60.184,23.338a7.748,7.748,0,0,0-5.856-2.671h-.222a23.249,23.249,0,0,0-46.211,0H7.75A7.751,7.751,0,0,0,.078,29.515L2.819,48.693A15.578,15.578,0,0,0,18.164,62H43.917A15.58,15.58,0,0,0,59.262,48.693L62,29.515a7.755,7.755,0,0,0-1.819-6.177ZM31,5.167a18.113,18.113,0,0,1,17.9,15.5H13.1A18.113,18.113,0,0,1,31,5.167ZM56.888,28.783,54.147,47.962a10.386,10.386,0,0,1-10.23,8.874H18.164a10.382,10.382,0,0,1-10.23-8.874L5.193,28.783a2.582,2.582,0,0,1,2.555-2.95h46.58a2.582,2.582,0,0,1,2.557,2.95Zm-23.3,4.8v15.5a2.583,2.583,0,1,1-5.167,0v-15.5a2.583,2.583,0,1,1,5.167,0Zm12.917,0v15.5a2.583,2.583,0,0,1-5.167,0v-15.5a2.583,2.583,0,0,1,5.167,0Zm-25.833,0v15.5a2.583,2.583,0,0,1-5.167,0v-15.5a2.583,2.583,0,0,1,5.167,0Z" transform="translate(0)" fill="#015287"/>
</svg>
