<svg xmlns="http://www.w3.org/2000/svg" width="45.526" height="41.732" viewBox="0 0 45.526 41.732">
  <path id="browser" d="M0,16.175V33.247a9.5,9.5,0,0,0,9.485,9.485H36.041a9.5,9.5,0,0,0,9.485-9.485V16.175ZM26.557,35.144H11.381a1.9,1.9,0,1,1,0-3.794H26.557a1.9,1.9,0,1,1,0,3.794Zm7.588-7.588H11.381a1.9,1.9,0,1,1,0-3.794H34.144a1.9,1.9,0,1,1,0,3.794ZM45.526,12.381v-1.9A9.5,9.5,0,0,0,36.041,1H9.485A9.5,9.5,0,0,0,0,10.485v1.9ZM18.969,4.794a1.9,1.9,0,1,1-1.9,1.9A1.9,1.9,0,0,1,18.969,4.794Zm-5.691,0a1.9,1.9,0,1,1-1.9,1.9A1.9,1.9,0,0,1,13.278,4.794Zm-5.691,0a1.9,1.9,0,1,1-1.9,1.9A1.9,1.9,0,0,1,7.588,4.794Z" transform="translate(0 -1)" fill="#015287"/>
</svg>
