<svg xmlns="http://www.w3.org/2000/svg" width="53.397" height="44.498" viewBox="0 0 53.397 44.498">
  <path id="cama-alt_2_" data-name="cama-alt (2)" d="M43.385,2H10.012A10.024,10.024,0,0,0,0,12.012V45.385a1.112,1.112,0,0,0,2.225,0V39.823H51.173v5.562a1.112,1.112,0,1,0,2.225,0V12.012A10.024,10.024,0,0,0,43.385,2ZM10.012,4.225H43.385a7.8,7.8,0,0,1,7.787,7.787V28.7h-4.45V25.361a7.8,7.8,0,0,0-7.787-7.787H33.373a7.79,7.79,0,0,0-6.675,3.78,7.79,7.79,0,0,0-6.675-3.78H14.462a7.8,7.8,0,0,0-7.787,7.787V28.7H2.225V12.012A7.8,7.8,0,0,1,10.012,4.225ZM27.811,28.7V25.361A5.569,5.569,0,0,1,33.373,19.8h5.562A5.569,5.569,0,0,1,44.5,25.361V28.7ZM8.9,28.7V25.361A5.57,5.57,0,0,1,14.462,19.8h5.562a5.57,5.57,0,0,1,5.562,5.562V28.7ZM2.225,37.6V30.924H51.173V37.6Z" transform="translate(0 -2)"/>
</svg>
