<svg xmlns="http://www.w3.org/2000/svg" width="24" height="24" viewBox="0 0 24 24">
  <path id="circle-camera" d="M12,0A12,12,0,1,0,24,12,12.013,12.013,0,0,0,12,0Zm0,22A10,10,0,1,1,22,12,10.011,10.011,0,0,1,12,22Zm2-10a2,2,0,1,1-2-2A2,2,0,0,1,14,12Zm1.047-5-.695-1.082A1.991,1.991,0,0,0,12.669,5H11.331a1.991,1.991,0,0,0-1.682.918L8.953,7A3,3,0,0,0,6,10v4a3,3,0,0,0,3,3h6a3,3,0,0,0,3-3V10A3,3,0,0,0,15.047,7ZM16,14a1,1,0,0,1-1,1H9a1,1,0,0,1-1-1V10A1,1,0,0,1,9,9h6a1,1,0,0,1,1,1Z" fill="#015287"/>
</svg>
