<svg xmlns="http://www.w3.org/2000/svg" width="24" height="18" viewBox="0 0 24 18">
  <g id="credit-card" transform="translate(0 -3)">
    <circle id="Elipse_6" data-name="Elipse 6" cx="1.5" cy="1.5" r="1.5" transform="translate(4 14)" fill="#015287"/>
    <path id="Caminho_2256" data-name="Caminho 2256" d="M19,3H5A5.006,5.006,0,0,0,0,8v8a5.006,5.006,0,0,0,5,5H19a5.006,5.006,0,0,0,5-5V8a5.006,5.006,0,0,0-5-5ZM5,5H19a3,3,0,0,1,3,3H2A3,3,0,0,1,5,5ZM19,19H5a3,3,0,0,1-3-3V10H22v6A3,3,0,0,1,19,19Z" fill="#015287"/>
  </g>
</svg>
