<svg xmlns="http://www.w3.org/2000/svg" width="24.051" height="24.001" viewBox="0 0 24.051 24.001">
  <path id="daily-calendar" d="M11.206,14.656a29.944,29.944,0,0,1-1.257,4.66,1,1,0,0,1-1.9-.633c.238-.715.479-1.45.687-2.184a1.015,1.015,0,0,1-.852-.445,1,1,0,0,1,.277-1.387l1.5-1a1,1,0,0,1,1.542.988ZM18,10.447a35.426,35.426,0,0,1-1.8,10.579A4.293,4.293,0,0,1,12.1,24H3.322a3.459,3.459,0,0,1-2.837-1.52,2.976,2.976,0,0,1-.314-2.825c.823-2.012,2.356-5.757,2.406-9.17a1,1,0,0,1,.353-.748A3.216,3.216,0,0,1,4.769,9a2.669,2.669,0,0,1,1.724.616,1.629,1.629,0,0,0,2.087,0,2.68,2.68,0,0,1,3.418,0,1.629,1.629,0,0,0,2.087,0A2.674,2.674,0,0,1,15.82,9a2.986,2.986,0,0,1,1.769.682,1,1,0,0,1,.409.766Zm-2,.583a.69.69,0,0,0-.631.125,3.7,3.7,0,0,1-4.641,0,.679.679,0,0,0-.864,0,3.7,3.7,0,0,1-4.642,0,.689.689,0,0,0-.657-.116A29.4,29.4,0,0,1,2.02,20.414a1.01,1.01,0,0,0,.124.953A1.436,1.436,0,0,0,3.321,22H12.1a2.3,2.3,0,0,0,2.2-1.59,33.777,33.777,0,0,0,1.7-9.381ZM24,4V18a4,4,0,0,1-4,4H19a1,1,0,0,1,0-2h1a2,2,0,0,0,2-2V7a2.5,2.5,0,0,1-1.63-.616,1.592,1.592,0,0,0-2.074,0,2.465,2.465,0,0,1-3.26,0,1.592,1.592,0,0,0-2.074,0,2.465,2.465,0,0,1-3.26,0,1.592,1.592,0,0,0-2.074,0L7.614,6.4A.988.988,0,0,1,6,5.629V4a4.007,4.007,0,0,1,4-4H20a4,4,0,0,1,4,4ZM22,4a2,2,0,0,0-2-2H10A2,2,0,0,0,8,4v.056A3.98,3.98,0,0,1,8.667,4a3.6,3.6,0,0,1,2.338.865A.5.5,0,0,0,11.333,5a.5.5,0,0,0,.328-.135,3.592,3.592,0,0,1,4.676,0A.5.5,0,0,0,16.665,5a.5.5,0,0,0,.328-.135,3.592,3.592,0,0,1,4.676,0A.5.5,0,0,0,22,5V4Z" transform="translate(0.051)" fill="#015287"/>
</svg>
