<svg xmlns="http://www.w3.org/2000/svg" width="24" height="24" viewBox="0 0 24 24">
  <path id="donate" d="M12,20A10,10,0,1,0,2,10,10.011,10.011,0,0,0,12,20ZM12,2a8,8,0,1,1-8,8A8.009,8.009,0,0,1,12,2ZM24,20.5A3.5,3.5,0,0,1,20.5,24H3.5a3.5,3.5,0,0,1-2.1-6.3,1,1,0,0,1,1.2,1.6A1.5,1.5,0,0,0,3.5,22h17a1.5,1.5,0,0,0,.9-2.7,1,1,0,0,1,1.2-1.6A3.479,3.479,0,0,1,24,20.5ZM14,12a.769.769,0,0,0-.644-.761l-3.041-.506A2.763,2.763,0,0,1,8,8a3,3,0,0,1,3-3V4a1,1,0,1,1,2,0V5h.268a3.01,3.01,0,0,1,2.6,1.5,1,1,0,0,1-1.731,1,1,1,0,0,0-.867-.5H11a1,1,0,0,0-1,1,.769.769,0,0,0,.644.761l3.041.506A2.763,2.763,0,0,1,16,12a3,3,0,0,1-3,3v1a1,1,0,0,1-2,0V15h-.268a3.01,3.01,0,0,1-2.6-1.5,1,1,0,0,1,1.731-1,1,1,0,0,0,.867.5H13a1,1,0,0,0,1-1Z" fill="#015287"/>
</svg>
