<svg id="exclamation" xmlns="http://www.w3.org/2000/svg" width="24" height="24" viewBox="0 0 24 24">
  <path id="Caminho_2258" data-name="Caminho 2258" d="M12,0A12,12,0,1,0,24,12,12,12,0,0,0,12,0Zm0,22A10,10,0,1,1,22,12,10,10,0,0,1,12,22Z" fill="#015287"/>
  <path id="Caminho_2259" data-name="Caminho 2259" d="M12,5a1,1,0,0,0-1,1v8a1,1,0,0,0,2,0V6A1,1,0,0,0,12,5Z" fill="#015287"/>
  <rect id="Retângulo_17" data-name="Retângulo 17" width="2" height="2" rx="1" transform="translate(11 17)" fill="#015287"/>
</svg>
