<svg id="_01_align_center" data-name="01 align center" xmlns="http://www.w3.org/2000/svg" width="24" height="24" viewBox="0 0 24 24">
  <path id="Caminho_2244" data-name="Caminho 2244" d="M12,24A12,12,0,1,1,24,12,12,12,0,0,1,12,24ZM12,2A10,10,0,1,0,22,12,10,10,0,0,0,12,2Z" fill="#015287"/>
  <path id="Caminho_2245" data-name="Caminho 2245" d="M13,15H11v-.743a3.954,3.954,0,0,1,1.964-3.5,2,2,0,0,0,1-2.125,2.024,2.024,0,0,0-1.6-1.6A2,2,0,0,0,10,9H8a4,4,0,1,1,5.93,3.505A1.982,1.982,0,0,0,13,14.257Z" fill="#015287"/>
  <rect id="Retângulo_14" data-name="Retângulo 14" width="2" height="2" transform="translate(11 17)" fill="#015287"/>
</svg>
