<svg xmlns="http://www.w3.org/2000/svg" width="22.972" height="25.055" viewBox="0 0 22.972 25.055">
  <path id="map-marker-cross" d="M28.973,13.94l2.387-2.387L28.973,9.166a1.041,1.041,0,1,1,1.446-1.5l.026.026,2.387,2.387,2.387-2.387a1.041,1.041,0,1,1,1.5,1.447l-.026.026L34.3,11.553l2.387,2.387a1.041,1.041,0,0,1-1.447,1.5l-.026-.026-2.387-2.387-2.387,2.387a1.041,1.041,0,0,1-1.472-1.472Zm-4.209,5.738a11.452,11.452,0,0,1,16-16.389q.084.082.167.166a11.452,11.452,0,0,1,0,16.195l-4.156,3.84a5.666,5.666,0,0,1-7.9-.02Zm-1.3-8.125a9.308,9.308,0,0,0,2.744,6.625l4.1,3.785a3.659,3.659,0,0,0,5.036.02l4.148-3.833a9.37,9.37,0,1,0-16.024-6.6Z" transform="translate(-21.312 -0.032)" fill="#015287"/>
</svg>
