<svg xmlns="http://www.w3.org/2000/svg" width="45.53" height="45.526" viewBox="0 0 45.53 45.526">
  <path id="megaphone" d="M43.629,30.351a1.9,1.9,0,0,1-.846-.2l-3.794-1.9a1.9,1.9,0,1,1,1.7-3.4l3.794,1.9a1.9,1.9,0,0,1-.85,3.595ZM40.683,13.089l3.794-1.9a1.9,1.9,0,0,0-1.7-3.4l-3.794,1.9a1.9,1.9,0,1,0,1.7,3.4Zm4.843,5.88a1.9,1.9,0,0,0-1.9-1.9H39.835a1.9,1.9,0,1,0,0,3.794h3.794A1.9,1.9,0,0,0,45.526,18.969ZM34.144,36.041V1.9a1.9,1.9,0,1,0-3.794,0c0,5.594-4.9,7.588-9.485,7.588H7.588A7.588,7.588,0,0,0,0,17.072v3.794a7.588,7.588,0,0,0,7.588,7.588H20.866c4.585,0,9.485,1.994,9.485,7.588a1.9,1.9,0,1,0,3.794,0ZM15.528,32.247H7.588a11.382,11.382,0,0,1-2.622-.317L9.708,42.519a5.067,5.067,0,0,0,4.628,3.007A4.67,4.67,0,0,0,18.59,38.94Z" fill="#015287"/>
</svg>
