<svg xmlns="http://www.w3.org/2000/svg" width="25.057" height="25.056" viewBox="0 0 25.057 25.056">
  <g id="Pix" transform="translate(-0.003 -0.002)">
    <path id="Caminho_2261" data-name="Caminho 2261" d="M45.654,91.866a3.657,3.657,0,0,1-2.6-1.078L39.293,87.03a.714.714,0,0,0-.988,0L34.533,90.8a3.657,3.657,0,0,1-2.6,1.078H31.19l4.76,4.76a3.807,3.807,0,0,0,5.383,0l4.774-4.774h-.453Z" transform="translate(-26.111 -72.695)" fill="#015287"/>
    <path id="Caminho_2262" data-name="Caminho 2262" d="M31.931,5.877a3.657,3.657,0,0,1,2.6,1.078l3.772,3.773a.7.7,0,0,0,.988,0l3.759-3.759a3.657,3.657,0,0,1,2.6-1.078h.453L41.333,1.117a3.807,3.807,0,0,0-5.383,0l-4.76,4.76Z" transform="translate(-26.111)" fill="#015287"/>
    <path id="Caminho_2263" data-name="Caminho 2263" d="M23.945,45.527l-2.884-2.884a.536.536,0,0,1-.205.041H19.544a2.6,2.6,0,0,0-1.821.754L13.964,47.2a1.808,1.808,0,0,1-2.552,0L7.638,43.423a2.587,2.587,0,0,0-1.821-.754H4.2a.548.548,0,0,1-.194-.039l-2.893,2.9a3.807,3.807,0,0,0,0,5.383l2.9,2.9a.548.548,0,0,1,.194-.039H5.82a2.6,2.6,0,0,0,1.821-.754l3.772-3.772a1.846,1.846,0,0,1,2.551,0L17.722,53a2.589,2.589,0,0,0,1.821.755h1.312a.569.569,0,0,1,.205.041l2.884-2.884a3.807,3.807,0,0,0,0-5.383h0Z" transform="translate(0 -35.689)" fill="#015287"/>
  </g>
</svg>
