<svg xmlns="http://www.w3.org/2000/svg" width="24" height="24" viewBox="0 0 24 24">
  <path id="qrcode" d="M7,0H4A4,4,0,0,0,0,4V7a4,4,0,0,0,4,4H7a4,4,0,0,0,4-4V4A4,4,0,0,0,7,0ZM9,7A2,2,0,0,1,7,9H4A2,2,0,0,1,2,7V4A2,2,0,0,1,4,2H7A2,2,0,0,1,9,4ZM7,5V6A1,1,0,0,1,6,7H5A1,1,0,0,1,4,6V5A1,1,0,0,1,5,4H6A1,1,0,0,1,7,5Zm10,6h3a4,4,0,0,0,4-4V4a4,4,0,0,0-4-4H17a4,4,0,0,0-4,4V7A4,4,0,0,0,17,11ZM15,4a2,2,0,0,1,2-2h3a2,2,0,0,1,2,2V7a2,2,0,0,1-2,2H17a2,2,0,0,1-2-2Zm2,2V5a1,1,0,0,1,1-1h1a1,1,0,0,1,1,1V6a1,1,0,0,1-1,1H18A1,1,0,0,1,17,6ZM7,13H4a4,4,0,0,0-4,4v3a4,4,0,0,0,4,4H7a4,4,0,0,0,4-4V17A4,4,0,0,0,7,13Zm2,7a2,2,0,0,1-2,2H4a2,2,0,0,1-2-2V17a2,2,0,0,1,2-2H7a2,2,0,0,1,2,2ZM7,18v1a1,1,0,0,1-1,1H5a1,1,0,0,1-1-1V18a1,1,0,0,1,1-1H6A1,1,0,0,1,7,18Zm10-3.5v1A1.5,1.5,0,0,1,15.5,17h-1A1.5,1.5,0,0,1,13,15.5v-1A1.5,1.5,0,0,1,14.5,13h1A1.5,1.5,0,0,1,17,14.5Zm3,4h0A1.5,1.5,0,0,1,18.5,20h0A1.5,1.5,0,0,1,17,18.5h0A1.5,1.5,0,0,1,18.5,17h0A1.5,1.5,0,0,1,20,18.5Zm-3,3v1A1.5,1.5,0,0,1,15.5,24h-1A1.5,1.5,0,0,1,13,22.5v-1A1.5,1.5,0,0,1,14.5,20h1A1.5,1.5,0,0,1,17,21.5Zm7-7v1A1.5,1.5,0,0,1,22.5,17h-1A1.5,1.5,0,0,1,20,15.5v-1A1.5,1.5,0,0,1,21.5,13h1A1.5,1.5,0,0,1,24,14.5Z" fill="#015287"/>
</svg>
