<svg xmlns="http://www.w3.org/2000/svg" width="24" height="20" viewBox="0 0 24 20">
  <path id="rectangle-xmark" d="M19,2H5A5.006,5.006,0,0,0,0,7V17a5.006,5.006,0,0,0,5,5H19a5.006,5.006,0,0,0,5-5V7A5.006,5.006,0,0,0,19,2Zm3,15a3,3,0,0,1-3,3H5a3,3,0,0,1-3-3V7A3,3,0,0,1,5,4H19a3,3,0,0,1,3,3ZM16.207,9.207,13.414,12l2.793,2.793a1,1,0,1,1-1.414,1.414L12,13.414,9.207,16.207a1,1,0,1,1-1.414-1.414L10.586,12,7.793,9.207A1,1,0,1,1,9.207,7.793L12,10.586l2.793-2.793a1,1,0,1,1,1.414,1.414Z" transform="translate(0 -2)" fill="#015287"/>
</svg>
