<svg xmlns="http://www.w3.org/2000/svg" width="45.479" height="45.526" viewBox="0 0 45.479 45.526">
  <path id="restock" d="M2.86,24.66A2.961,2.961,0,0,1,.014,21.682,22.74,22.74,0,0,1,35.83,4.152L38.472,1.51a1.9,1.9,0,0,1,3.249,1.347v8.519a1.9,1.9,0,0,1-1.9,1.9H31.3a1.9,1.9,0,0,1-1.347-3.251l1.781-1.781A17.068,17.068,0,0,0,5.7,21.947,2.846,2.846,0,0,1,2.858,24.66Zm39.922-3.79a2.822,2.822,0,0,0-2.974,2.709,17.068,17.068,0,0,1-26.035,13.7L15.554,35.5a1.905,1.905,0,0,0-1.347-3.251H5.688a1.9,1.9,0,0,0-1.9,1.9v8.519a1.9,1.9,0,0,0,3.249,1.347l2.642-2.642A22.737,22.737,0,0,0,45.487,23.844a2.843,2.843,0,0,0-2.709-2.974Zm-10.545-1.9v7.588a3.793,3.793,0,0,1-3.794,3.794H17.062a3.793,3.793,0,0,1-3.794-3.794V18.969a3.793,3.793,0,0,1,3.794-3.794H28.443A3.793,3.793,0,0,1,32.237,18.969Zm-6.639,1.9a1.9,1.9,0,0,0-1.9-1.9H21.8a1.9,1.9,0,0,0,0,3.794h1.9A1.9,1.9,0,0,0,25.6,20.866Z" transform="translate(-0.012)" fill="#015287"/>
</svg>
