<svg xmlns="http://www.w3.org/2000/svg" width="22" height="24" viewBox="0 0 22 24">
  <path id="sack-dollar" d="M14.648,5.493A7.148,7.148,0,0,0,16.876,2.7a1.948,1.948,0,0,0-.2-1.816A2.018,2.018,0,0,0,15,0H9A2.018,2.018,0,0,0,7.329.888a1.951,1.951,0,0,0-.2,1.816A7.156,7.156,0,0,0,9.352,5.493C4.7,7.221,1,13.159,1,18a6.006,6.006,0,0,0,6,6H17a6.006,6.006,0,0,0,6-6C23,13.159,19.3,7.221,14.648,5.493Zm.369-3.528A7.078,7.078,0,0,1,12,4.875,7,7,0,0,1,9,2l6.018-.035ZM17,22H7a4,4,0,0,1-4-4C3,12.757,7.71,7,12,7s9,5.757,9,11a4,4,0,0,1-4,4Zm-5,0a1,1,0,0,1-1-1V20h-.268a3.009,3.009,0,0,1-2.6-1.5,1,1,0,0,1,1.731-1,1,1,0,0,0,.867.5H13a1,1,0,0,0,1-1,.768.768,0,0,0-.644-.76l-3.042-.507A2.762,2.762,0,0,1,8,13a3,3,0,0,1,3-3V9a1,1,0,0,1,2,0v1h.268a3.011,3.011,0,0,1,2.6,1.5,1,1,0,0,1-1.731,1,1,1,0,0,0-.867-.5H11a1,1,0,0,0-1,1,.768.768,0,0,0,.644.76l3.042.507A2.762,2.762,0,0,1,16,17a3,3,0,0,1-3,3v1a1,1,0,0,1-1,1Z" transform="translate(-1)" fill="#015287"/>
</svg>
