<svg xmlns="http://www.w3.org/2000/svg" width="24" height="24" viewBox="0 0 24 24">
  <path id="track" d="M17.247,10.279a2.52,2.52,0,0,0,3.505,0l1.783-1.744a5,5,0,1,0-7.063.008l1.775,1.736Zm-.369-7.4a3,3,0,0,1,4.251,4.234L19.354,8.849a.507.507,0,0,1-.708,0L16.879,7.121a3.005,3.005,0,0,1,0-4.243ZM4,22a2,2,0,1,1-2-2A2,2,0,0,1,4,22Zm10.5-6a2,2,0,1,1-2-2A2,2,0,0,1,14.5,16ZM2,13A4,4,0,0,1,6,9h7a1,1,0,0,1,0,2H6a2,2,0,0,0,0,4H8a1,1,0,0,1,0,2H6A4,4,0,0,1,2,13Zm22,6a4,4,0,0,1-4,4H7a1,1,0,0,1,0-2H20a2,2,0,0,0,0-4H17a1,1,0,0,1,0-2h3A4,4,0,0,1,24,19ZM20,4.787a1,1,0,1,1-1-1A1,1,0,0,1,20,4.787Z" fill="#015287"/>
</svg>
