<svg xmlns="http://www.w3.org/2000/svg" width="45.526" height="45.526" viewBox="0 0 45.526 45.526">
  <path id="users-alt" d="M22.763,30.351a7.588,7.588,0,1,1,7.588-7.588A7.588,7.588,0,0,1,22.763,30.351Zm-11.983,0H1.9a1.9,1.9,0,0,1-1.9-1.9A11.423,11.423,0,0,1,9.733,17.232a1.9,1.9,0,0,1,2.087,2.4,11.4,11.4,0,0,0-.438,3.13,11.262,11.262,0,0,0,1.112,4.875,1.9,1.9,0,0,1-1.707,2.713ZM32.247,45.526H13.278a1.9,1.9,0,0,1-1.9-1.9,11.381,11.381,0,0,1,22.763,0A1.9,1.9,0,0,1,32.247,45.526Zm1.9-30.351a7.588,7.588,0,1,1,7.588-7.588A7.588,7.588,0,0,1,34.144,15.175Zm-22.763,0a7.588,7.588,0,1,1,7.588-7.588A7.588,7.588,0,0,1,11.381,15.175ZM43.629,30.351H34.746a1.9,1.9,0,0,1-1.707-2.713,11.262,11.262,0,0,0,1.106-4.875,11.4,11.4,0,0,0-.448-3.13,1.9,1.9,0,0,1,2.1-2.4,11.423,11.423,0,0,1,9.733,11.222A1.9,1.9,0,0,1,43.629,30.351Z" fill="#015287"/>
</svg>
